<svg xmlns="http://www.w3.org/2000/svg" viewBox="0 0 24 24" role="img" aria-label="WhatsApp">
  <rect width="24" height="24" rx="5" fill="#25D366"/>
  <path fill="#fff" d="M12 5.5c-3.6 0-6.5 2.9-6.5 6.5 0 1.1.3 2.2.8 3.1L5.5 18.5l3.6-.9c.9.5 1.9.8 2.9.8 3.6 0 6.5-2.9 6.5-6.5S15.6 5.5 12 5.5zm3.4 9.1c-.2.4-1 .7-1.3.7-.3 0-.7.1-2.3-.9-1.9-1.1-3.1-3.8-3.2-4-.1-.2-.8-1.1-.8-2.1 0-1 .5-1.5.7-1.7.2-.2.5-.3.7-.3h.5c.2 0 .4 0 .5.4.2.4.7 1.8.8 1.9.1.1.1.3 0 .4-.1.2-.2.3-.3.4-.1.1-.2.3-.1.5.1.2.6 1.1 1.4 1.8 1 .9 1.8 1.1 2.1 1.2.3.1.5.1.7-.1.2-.2.8-.9 1-1.2.2-.3.5-.2.8-.1.3.1 2 .9 2.3 1 .3.2.5.3.6.4.1.2.1.9-.1 1.3z"/>
</svg>
