<svg xmlns="http://www.w3.org/2000/svg" viewBox="0 0 400 300" role="img" aria-label="Children playing together">
  <rect width="400" height="300" fill="#e0f2fe" rx="20"/>
  <ellipse cx="200" cy="270" rx="150" ry="18" fill="#bae6fd" opacity="0.6"/>
  <g transform="translate(70 80)">
    <circle cx="40" cy="35" r="32" fill="#fde68a" stroke="#f59e0b" stroke-width="2"/>
    <circle cx="32" cy="32" r="4" fill="#1e293b"/><circle cx="48" cy="32" r="4" fill="#1e293b"/>
    <path d="M30 44 Q40 52 50 44" stroke="#1e293b" stroke-width="2.5" fill="none" stroke-linecap="round"/>
    <rect x="18" y="65" width="44" height="55" rx="12" fill="#38bdf8"/>
    <rect x="10" y="115" width="20" height="35" rx="8" fill="#0ea5e9"/>
    <rect x="50" y="115" width="20" height="35" rx="8" fill="#0ea5e9"/>
  </g>
  <g transform="translate(160 70)">
    <circle cx="40" cy="38" r="34" fill="#fbcfe8" stroke="#ec4899" stroke-width="2"/>
    <circle cx="31" cy="35" r="4" fill="#1e293b"/><circle cx="49" cy="35" r="4" fill="#1e293b"/>
    <path d="M28 48 Q40 56 52 48" stroke="#1e293b" stroke-width="2.5" fill="none" stroke-linecap="round"/>
    <rect x="16" y="70" width="48" height="58" rx="12" fill="#a78bfa"/>
    <rect x="8" y="125" width="22" height="38" rx="8" fill="#8b5cf6"/>
    <rect x="50" y="125" width="22" height="38" rx="8" fill="#8b5cf6"/>
  </g>
  <g transform="translate(250 85)">
    <circle cx="35" cy="32" r="30" fill="#bbf7d0" stroke="#22c55e" stroke-width="2"/>
    <circle cx="27" cy="30" r="3.5" fill="#1e293b"/><circle cx="43" cy="30" r="3.5" fill="#1e293b"/>
    <path d="M24 42 Q35 50 46 42" stroke="#1e293b" stroke-width="2.5" fill="none" stroke-linecap="round"/>
    <rect x="14" y="60" width="42" height="50" rx="10" fill="#34d399"/>
    <rect x="6" y="105" width="18" height="32" rx="7" fill="#10b981"/>
    <rect x="46" y="105" width="18" height="32" rx="7" fill="#10b981"/>
  </g>
  <circle cx="200" cy="200" r="18" fill="#fbbf24" opacity="0.8"/>
  <circle cx="220" cy="195" r="12" fill="#fb7185" opacity="0.7"/>
</svg>
